<?xml version="1.0" encoding="UTF-8" standalone="no"?>
<!DOCTYPE svg PUBLIC "-//W3C//DTD SVG 1.1//EN"
 "http://www.w3.org/Graphics/SVG/1.1/DTD/svg11.dtd">
<!-- Generated by graphviz version 2.36.0 (20140111.2315)
 -->
<!-- Title: G Pages: 1 -->
<svg width="1266pt" height="2722pt"
 viewBox="0.00 0.00 1266.00 2722.00" xmlns="http://www.w3.org/2000/svg" xmlns:xlink="http://www.w3.org/1999/xlink">
<g id="graph0" class="graph" transform="scale(1 1) rotate(0) translate(4 2718)">
<title>G</title>
<polygon fill="white" stroke="none" points="-4,4 -4,-2718 1262,-2718 1262,4 -4,4"/>
<!-- n1 -->
<g id="node1" class="node"><title>n1</title>
<g id="a_node1"><a xlink:title="[./misc/attenmodel.lua]:66_">
<ellipse fill="none" stroke="black" cx="654" cy="-150" rx="113.267" ry="37.4533"/>
<text text-anchor="middle" x="654" y="-161.3" font-family="Times,serif" font-size="14.00">Node1</text>
<text text-anchor="start" x="581.5" y="-146.3" font-family="Times,serif" font-size="14.00">module = nn.LogSoftMax</text>
<text text-anchor="middle" x="654" y="-131.3" font-family="Times,serif" font-size="14.00">reverseMap = {}</text>
</a>
</g>
</g>
<!-- n2 -->
<g id="node2" class="node"><title>n2</title>
<g id="a_node2"><a xlink:title="[[C]]:&#45;1_">
<ellipse fill="none" stroke="black" cx="654" cy="-38" rx="77.1743" ry="37.4533"/>
<text text-anchor="middle" x="654" y="-49.3" font-family="Times,serif" font-size="14.00">Node2</text>
<text text-anchor="start" x="607" y="-34.3" font-family="Times,serif" font-size="14.00">input = {}</text>
<text text-anchor="middle" x="654" y="-19.3" font-family="Times,serif" font-size="14.00">reverseMap = {}</text>
</a>
</g>
</g>
<!-- n1&#45;&gt;n2 -->
<g id="edge1" class="edge"><title>n1&#45;&gt;n2</title>
<path fill="none" stroke="black" d="M654,-112.372C654,-103.927 654,-94.8286 654,-86.0106"/>
<polygon fill="black" stroke="black" points="657.5,-85.8435 654,-75.8435 650.5,-85.8435 657.5,-85.8435"/>
</g>
<!-- n3 -->
<g id="node3" class="node"><title>n3</title>
<g id="a_node3"><a xlink:title="[./misc/attenmodel.lua]:64_">
<ellipse fill="none" stroke="black" cx="654" cy="-262" rx="101.236" ry="37.4533"/>
<text text-anchor="middle" x="654" y="-273.3" font-family="Times,serif" font-size="14.00">Node3</text>
<text text-anchor="start" x="590" y="-258.3" font-family="Times,serif" font-size="14.00">module = nn.JoinTable</text>
<text text-anchor="middle" x="654" y="-243.3" font-family="Times,serif" font-size="14.00">reverseMap = {}</text>
</a>
</g>
</g>
<!-- n3&#45;&gt;n1 -->
<g id="edge2" class="edge"><title>n3&#45;&gt;n1</title>
<path fill="none" stroke="black" d="M654,-224.372C654,-215.927 654,-206.829 654,-198.011"/>
<polygon fill="black" stroke="black" points="657.5,-197.843 654,-187.844 650.5,-197.844 657.5,-197.843"/>
</g>
<!-- n4 -->
<g id="node4" class="node"><title>n4</title>
<g id="a_node4"><a xlink:title="[./misc/attenmodel.lua]:64_">
<ellipse fill="none" stroke="black" cx="654" cy="-490" rx="132.404" ry="154.299"/>
<text text-anchor="middle" x="654" y="-583.8" font-family="Times,serif" font-size="14.00">Node4</text>
<text text-anchor="start" x="568" y="-568.8" font-family="Times,serif" font-size="14.00">module = nn.Sequential {</text>
<text text-anchor="start" x="568" y="-553.8" font-family="Times,serif" font-size="14.00"> &#160;[input &#45;&gt; (1) &#45;&gt; (2) &#45;&gt; output]</text>
<text text-anchor="start" x="568" y="-538.8" font-family="Times,serif" font-size="14.00"> &#160;(1): nn.SplitTable</text>
<text text-anchor="start" x="568" y="-523.8" font-family="Times,serif" font-size="14.00"> &#160;(2): nn.ParallelTable {</text>
<text text-anchor="start" x="568" y="-508.8" font-family="Times,serif" font-size="14.00"> &#160;&#160;&#160;input</text>
<text text-anchor="start" x="568" y="-493.8" font-family="Times,serif" font-size="14.00"> &#160;&#160;&#160;&#160;&#160;|`&#45;&gt; (1): nn.Linear(5 &#45;&gt; 1)</text>
<text text-anchor="start" x="568" y="-478.8" font-family="Times,serif" font-size="14.00"> &#160;&#160;&#160;&#160;&#160;|`&#45;&gt; (2): nn.Linear(5 &#45;&gt; 1)</text>
<text text-anchor="start" x="568" y="-463.8" font-family="Times,serif" font-size="14.00"> &#160;&#160;&#160;&#160;&#160;|`&#45;&gt; (3): nn.Linear(5 &#45;&gt; 1)</text>
<text text-anchor="start" x="568" y="-448.8" font-family="Times,serif" font-size="14.00"> &#160;&#160;&#160;&#160;&#160;&#160;`&#45;&gt; (4): nn.Linear(5 &#45;&gt; 1)</text>
<text text-anchor="start" x="568" y="-433.8" font-family="Times,serif" font-size="14.00"> &#160;&#160;&#160;&#160;&#160;&#160;... &#45;&gt; output</text>
<text text-anchor="start" x="568" y="-418.8" font-family="Times,serif" font-size="14.00"> &#160;}</text>
<text text-anchor="start" x="568" y="-403.8" font-family="Times,serif" font-size="14.00">}</text>
<text text-anchor="middle" x="654" y="-388.8" font-family="Times,serif" font-size="14.00">reverseMap = {}</text>
</a>
</g>
</g>
<!-- n4&#45;&gt;n3 -->
<g id="edge3" class="edge"><title>n4&#45;&gt;n3</title>
<path fill="none" stroke="black" d="M654,-335.752C654,-326.556 654,-317.77 654,-309.684"/>
<polygon fill="black" stroke="black" points="657.5,-309.483 654,-299.483 650.5,-309.483 657.5,-309.483"/>
</g>
<!-- n5 -->
<g id="node5" class="node"><title>n5</title>
<g id="a_node5"><a xlink:title="[./misc/attenmodel.lua]:56_">
<ellipse fill="none" stroke="black" cx="654" cy="-728" rx="124.176" ry="48.1667"/>
<text text-anchor="middle" x="654" y="-746.8" font-family="Times,serif" font-size="14.00">Node5</text>
<text text-anchor="start" x="574" y="-731.8" font-family="Times,serif" font-size="14.00">module = nn.MM</text>
<text text-anchor="start" x="574" y="-716.8" font-family="Times,serif" font-size="14.00">reverseMap = {}</text>
<text text-anchor="middle" x="654" y="-701.8" font-family="Times,serif" font-size="14.00">mapindex = {Node6,Node7}</text>
</a>
</g>
</g>
<!-- n5&#45;&gt;n4 -->
<g id="edge4" class="edge"><title>n5&#45;&gt;n4</title>
<path fill="none" stroke="black" d="M654,-679.809C654,-671.991 654,-663.514 654,-654.629"/>
<polygon fill="black" stroke="black" points="657.5,-654.438 654,-644.438 650.5,-654.438 657.5,-654.438"/>
</g>
<!-- n6 -->
<g id="node6" class="node"><title>n6</title>
<g id="a_node6"><a xlink:title="[./misc/attenmodel.lua]:54_">
<ellipse fill="none" stroke="black" cx="567" cy="-860" rx="143.314" ry="48.1667"/>
<text text-anchor="middle" x="567" y="-878.8" font-family="Times,serif" font-size="14.00">norm_AW (6)</text>
<text text-anchor="middle" x="567" y="-863.8" font-family="Times,serif" font-size="14.00">desc = normalize attention weight</text>
<text text-anchor="start" x="473.5" y="-848.8" font-family="Times,serif" font-size="14.00">module = nn.Reshape(2x4x3)</text>
<text text-anchor="middle" x="567" y="-833.8" font-family="Times,serif" font-size="14.00">reverseMap = {}</text>
</a>
</g>
</g>
<!-- n6&#45;&gt;n5 -->
<g id="edge5" class="edge"><title>n6&#45;&gt;n5</title>
<path fill="none" stroke="black" d="M597.918,-812.801C604.34,-803.205 611.162,-793.011 617.755,-783.159"/>
<polygon fill="black" stroke="black" points="620.821,-784.871 623.474,-774.613 615.004,-780.977 620.821,-784.871"/>
</g>
<!-- n7 -->
<g id="node7" class="node"><title>n7</title>
<g id="a_node7"><a xlink:title="[./misc/attenmodel.lua]:40_">
<ellipse fill="none" stroke="black" cx="743" cy="-1640" rx="117.07" ry="37.4533"/>
<text text-anchor="middle" x="743" y="-1651.3" font-family="Times,serif" font-size="14.00">Node7</text>
<text text-anchor="start" x="668" y="-1636.3" font-family="Times,serif" font-size="14.00">module = nn.Reshape(3x5)</text>
<text text-anchor="middle" x="743" y="-1621.3" font-family="Times,serif" font-size="14.00">reverseMap = {}</text>
</a>
</g>
</g>
<!-- n7&#45;&gt;n5 -->
<g id="edge6" class="edge"><title>n7&#45;&gt;n5</title>
<path fill="none" stroke="black" d="M742.511,-1602.51C741.919,-1555.14 741,-1469.9 741,-1397 741,-1397 741,-1397 741,-981 741,-905.255 748.281,-881.856 719,-812 714.622,-801.556 708.563,-791.311 701.892,-781.781"/>
<polygon fill="black" stroke="black" points="704.632,-779.599 695.898,-773.602 698.986,-783.736 704.632,-779.599"/>
</g>
<!-- n8 -->
<g id="node8" class="node"><title>n8</title>
<g id="a_node8"><a xlink:title="[./misc/attenmodel.lua]:54_">
<ellipse fill="none" stroke="black" cx="562" cy="-982" rx="101.236" ry="37.4533"/>
<text text-anchor="middle" x="562" y="-993.3" font-family="Times,serif" font-size="14.00">Node8</text>
<text text-anchor="start" x="498" y="-978.3" font-family="Times,serif" font-size="14.00">module = nn.JoinTable</text>
<text text-anchor="middle" x="562" y="-963.3" font-family="Times,serif" font-size="14.00">reverseMap = {}</text>
</a>
</g>
</g>
<!-- n8&#45;&gt;n6 -->
<g id="edge7" class="edge"><title>n8&#45;&gt;n6</title>
<path fill="none" stroke="black" d="M563.527,-944.344C563.866,-936.219 564.233,-927.418 564.597,-918.683"/>
<polygon fill="black" stroke="black" points="568.101,-918.64 565.021,-908.503 561.107,-918.348 568.101,-918.64"/>
</g>
<!-- n9 -->
<g id="node9" class="node"><title>n9</title>
<g id="a_node9"><a xlink:title="[./misc/attenmodel.lua]:36_">
<ellipse fill="none" stroke="black" cx="782" cy="-1959" rx="153.163" ry="58.8803"/>
<text text-anchor="middle" x="782" y="-1985.3" font-family="Times,serif" font-size="14.00">cont_H_layer (9)</text>
<text text-anchor="middle" x="782" y="-1970.3" font-family="Times,serif" font-size="14.00">desc = contanenate HiddenVec layer</text>
<text text-anchor="start" x="681.5" y="-1955.3" font-family="Times,serif" font-size="14.00">module = nn.JoinTable</text>
<text text-anchor="start" x="681.5" y="-1940.3" font-family="Times,serif" font-size="14.00">reverseMap = {}</text>
<text text-anchor="middle" x="782" y="-1925.3" font-family="Times,serif" font-size="14.00">mapindex = {Node11,Node12}</text>
</a>
</g>
</g>
<!-- n9&#45;&gt;n7 -->
<g id="edge8" class="edge"><title>n9&#45;&gt;n7</title>
<path fill="none" stroke="black" d="M774.892,-1900.23C767.384,-1839.2 755.691,-1744.16 748.744,-1687.69"/>
<polygon fill="black" stroke="black" points="752.199,-1687.11 747.505,-1677.61 745.252,-1687.97 752.199,-1687.11"/>
</g>
<!-- n10 -->
<g id="node10" class="node"><title>n10</title>
<g id="a_node10"><a xlink:title="[./misc/attenmodel.lua]:54_">
<ellipse fill="none" stroke="black" cx="553" cy="-1189" rx="132.404" ry="132.872"/>
<text text-anchor="middle" x="553" y="-1267.8" font-family="Times,serif" font-size="14.00">Node10</text>
<text text-anchor="start" x="467" y="-1252.8" font-family="Times,serif" font-size="14.00">module = nn.Sequential {</text>
<text text-anchor="start" x="467" y="-1237.8" font-family="Times,serif" font-size="14.00"> &#160;[input &#45;&gt; (1) &#45;&gt; (2) &#45;&gt; output]</text>
<text text-anchor="start" x="467" y="-1222.8" font-family="Times,serif" font-size="14.00"> &#160;(1): nn.SplitTable</text>
<text text-anchor="start" x="467" y="-1207.8" font-family="Times,serif" font-size="14.00"> &#160;(2): nn.ParallelTable {</text>
<text text-anchor="start" x="467" y="-1192.8" font-family="Times,serif" font-size="14.00"> &#160;&#160;&#160;input</text>
<text text-anchor="start" x="467" y="-1177.8" font-family="Times,serif" font-size="14.00"> &#160;&#160;&#160;&#160;&#160;|`&#45;&gt; (1): nn.Normalize(1)</text>
<text text-anchor="start" x="467" y="-1162.8" font-family="Times,serif" font-size="14.00"> &#160;&#160;&#160;&#160;&#160;&#160;`&#45;&gt; (2): nn.Normalize(1)</text>
<text text-anchor="start" x="467" y="-1147.8" font-family="Times,serif" font-size="14.00"> &#160;&#160;&#160;&#160;&#160;&#160;... &#45;&gt; output</text>
<text text-anchor="start" x="467" y="-1132.8" font-family="Times,serif" font-size="14.00"> &#160;}</text>
<text text-anchor="start" x="467" y="-1117.8" font-family="Times,serif" font-size="14.00">}</text>
<text text-anchor="middle" x="553" y="-1102.8" font-family="Times,serif" font-size="14.00">reverseMap = {}</text>
</a>
</g>
</g>
<!-- n10&#45;&gt;n8 -->
<g id="edge9" class="edge"><title>n10&#45;&gt;n8</title>
<path fill="none" stroke="black" d="M558.789,-1056.14C559.197,-1046.85 559.589,-1037.91 559.951,-1029.67"/>
<polygon fill="black" stroke="black" points="563.45,-1029.76 560.392,-1019.62 556.457,-1029.46 563.45,-1029.76"/>
</g>
<!-- n11 -->
<g id="node11" class="node"><title>n11</title>
<g id="a_node11"><a xlink:title="[./misc/attenmodel.lua]:36_">
<ellipse fill="none" stroke="black" cx="723" cy="-2187" rx="153.163" ry="58.8803"/>
<text text-anchor="middle" x="723" y="-2213.3" font-family="Times,serif" font-size="14.00">cont_H_layer (11)</text>
<text text-anchor="middle" x="723" y="-2198.3" font-family="Times,serif" font-size="14.00">desc = contanenate HiddenVec layer</text>
<text text-anchor="start" x="622.5" y="-2183.3" font-family="Times,serif" font-size="14.00">module = nn.JoinTable</text>
<text text-anchor="start" x="622.5" y="-2168.3" font-family="Times,serif" font-size="14.00">reverseMap = {}</text>
<text text-anchor="middle" x="723" y="-2153.3" font-family="Times,serif" font-size="14.00">mapindex = {Node14,Node15}</text>
</a>
</g>
</g>
<!-- n11&#45;&gt;n9 -->
<g id="edge10" class="edge"><title>n11&#45;&gt;n9</title>
<path fill="none" stroke="black" d="M738.041,-2128.39C746.085,-2097.57 756.036,-2059.46 764.434,-2027.29"/>
<polygon fill="black" stroke="black" points="767.847,-2028.07 766.987,-2017.51 761.074,-2026.3 767.847,-2028.07"/>
</g>
<!-- n12 -->
<g id="node12" class="node"><title>n12</title>
<g id="a_node12"><a xlink:title="[./misc/attenmodel.lua]:20_">
<ellipse fill="none" stroke="black" cx="1163" cy="-2320" rx="94.0678" ry="37.4533"/>
<text text-anchor="middle" x="1163" y="-2331.3" font-family="Times,serif" font-size="14.00">h3 (12)</text>
<text text-anchor="start" x="1104.5" y="-2316.3" font-family="Times,serif" font-size="14.00">module = nn.Identity</text>
<text text-anchor="middle" x="1163" y="-2301.3" font-family="Times,serif" font-size="14.00">reverseMap = {}</text>
</a>
</g>
</g>
<!-- n12&#45;&gt;n9 -->
<g id="edge11" class="edge"><title>n12&#45;&gt;n9</title>
<path fill="none" stroke="black" d="M1175.98,-2282.59C1188.17,-2241.49 1200.42,-2174.32 1170,-2128 1117.62,-2048.24 1018.4,-2006.17 933.404,-1984.07"/>
<polygon fill="black" stroke="black" points="934.197,-1980.66 923.644,-1981.6 932.482,-1987.45 934.197,-1980.66"/>
</g>
<!-- n27 -->
<g id="node27" class="node"><title>n27</title>
<g id="a_node27"><a xlink:title="[./misc/attenmodel.lua]:26_">
<ellipse fill="none" stroke="black" cx="1028" cy="-2187" rx="133.465" ry="58.8803"/>
<text text-anchor="middle" x="1028" y="-2213.3" font-family="Times,serif" font-size="14.00">cont_X_H_layer (27)</text>
<text text-anchor="middle" x="1028" y="-2198.3" font-family="Times,serif" font-size="14.00">desc = contanenate X_H layer</text>
<text text-anchor="start" x="941.5" y="-2183.3" font-family="Times,serif" font-size="14.00">module = nn.JoinTable</text>
<text text-anchor="start" x="941.5" y="-2168.3" font-family="Times,serif" font-size="14.00">reverseMap = {}</text>
<text text-anchor="middle" x="1028" y="-2153.3" font-family="Times,serif" font-size="14.00">mapindex = {Node30,Node12}</text>
</a>
</g>
</g>
<!-- n12&#45;&gt;n27 -->
<g id="edge34" class="edge"><title>n12&#45;&gt;n27</title>
<path fill="none" stroke="black" d="M1127.88,-2284.92C1116.15,-2273.54 1102.71,-2260.49 1089.56,-2247.74"/>
<polygon fill="black" stroke="black" points="1091.92,-2245.15 1082.31,-2240.7 1087.05,-2250.17 1091.92,-2245.15"/>
</g>
<!-- n13 -->
<g id="node13" class="node"><title>n13</title>
<g id="a_node13"><a xlink:title="[./misc/attenmodel.lua]:45_">
<ellipse fill="none" stroke="black" cx="534" cy="-1396" rx="103.357" ry="37.4533"/>
<text text-anchor="middle" x="534" y="-1407.3" font-family="Times,serif" font-size="14.00">Node13</text>
<text text-anchor="start" x="469" y="-1392.3" font-family="Times,serif" font-size="14.00">module = nn.Transpose</text>
<text text-anchor="middle" x="534" y="-1377.3" font-family="Times,serif" font-size="14.00">reverseMap = {}</text>
</a>
</g>
</g>
<!-- n13&#45;&gt;n10 -->
<g id="edge12" class="edge"><title>n13&#45;&gt;n10</title>
<path fill="none" stroke="black" d="M537.397,-1358.35C538.141,-1350.32 538.973,-1341.34 539.854,-1331.84"/>
<polygon fill="black" stroke="black" points="543.35,-1332.04 540.788,-1321.76 536.38,-1331.4 543.35,-1332.04"/>
</g>
<!-- n14 -->
<g id="node14" class="node"><title>n14</title>
<g id="a_node14"><a xlink:title="[./misc/attenmodel.lua]:20_">
<ellipse fill="none" stroke="black" cx="751" cy="-2320" rx="94.0678" ry="37.4533"/>
<text text-anchor="middle" x="751" y="-2331.3" font-family="Times,serif" font-size="14.00">h1 (14)</text>
<text text-anchor="start" x="692.5" y="-2316.3" font-family="Times,serif" font-size="14.00">module = nn.Identity</text>
<text text-anchor="middle" x="751" y="-2301.3" font-family="Times,serif" font-size="14.00">reverseMap = {}</text>
</a>
</g>
</g>
<!-- n14&#45;&gt;n11 -->
<g id="edge13" class="edge"><title>n14&#45;&gt;n11</title>
<path fill="none" stroke="black" d="M743.2,-2282.51C741.418,-2274.17 739.467,-2265.04 737.504,-2255.86"/>
<polygon fill="black" stroke="black" points="740.888,-2254.94 735.375,-2245.9 734.042,-2256.41 740.888,-2254.94"/>
</g>
<!-- n25 -->
<g id="node25" class="node"><title>n25</title>
<g id="a_node25"><a xlink:title="[./misc/attenmodel.lua]:26_">
<ellipse fill="none" stroke="black" cx="418" cy="-2187" rx="133.465" ry="58.8803"/>
<text text-anchor="middle" x="418" y="-2213.3" font-family="Times,serif" font-size="14.00">cont_X_H_layer (25)</text>
<text text-anchor="middle" x="418" y="-2198.3" font-family="Times,serif" font-size="14.00">desc = contanenate X_H layer</text>
<text text-anchor="start" x="331.5" y="-2183.3" font-family="Times,serif" font-size="14.00">module = nn.JoinTable</text>
<text text-anchor="start" x="331.5" y="-2168.3" font-family="Times,serif" font-size="14.00">reverseMap = {}</text>
<text text-anchor="middle" x="418" y="-2153.3" font-family="Times,serif" font-size="14.00">mapindex = {Node28,Node14}</text>
</a>
</g>
</g>
<!-- n14&#45;&gt;n25 -->
<g id="edge30" class="edge"><title>n14&#45;&gt;n25</title>
<path fill="none" stroke="black" d="M684.055,-2293.63C647.607,-2279.72 601.756,-2262.09 561,-2246 549.086,-2241.3 536.634,-2236.33 524.261,-2231.35"/>
<polygon fill="black" stroke="black" points="525.408,-2228.04 514.824,-2227.55 522.794,-2234.53 525.408,-2228.04"/>
</g>
<!-- n15 -->
<g id="node15" class="node"><title>n15</title>
<g id="a_node15"><a xlink:title="[./misc/attenmodel.lua]:20_">
<ellipse fill="none" stroke="black" cx="545" cy="-2320" rx="94.0678" ry="37.4533"/>
<text text-anchor="middle" x="545" y="-2331.3" font-family="Times,serif" font-size="14.00">h2 (15)</text>
<text text-anchor="start" x="486.5" y="-2316.3" font-family="Times,serif" font-size="14.00">module = nn.Identity</text>
<text text-anchor="middle" x="545" y="-2301.3" font-family="Times,serif" font-size="14.00">reverseMap = {}</text>
</a>
</g>
</g>
<!-- n15&#45;&gt;n11 -->
<g id="edge14" class="edge"><title>n15&#45;&gt;n11</title>
<path fill="none" stroke="black" d="M589,-2286.62C605.935,-2274.15 625.821,-2259.52 645.013,-2245.4"/>
<polygon fill="black" stroke="black" points="647.205,-2248.13 653.185,-2239.38 643.056,-2242.49 647.205,-2248.13"/>
</g>
<!-- n26 -->
<g id="node26" class="node"><title>n26</title>
<g id="a_node26"><a xlink:title="[./misc/attenmodel.lua]:26_">
<ellipse fill="none" stroke="black" cx="133" cy="-2187" rx="133.465" ry="58.8803"/>
<text text-anchor="middle" x="133" y="-2213.3" font-family="Times,serif" font-size="14.00">cont_X_H_layer (26)</text>
<text text-anchor="middle" x="133" y="-2198.3" font-family="Times,serif" font-size="14.00">desc = contanenate X_H layer</text>
<text text-anchor="start" x="46.5" y="-2183.3" font-family="Times,serif" font-size="14.00">module = nn.JoinTable</text>
<text text-anchor="start" x="46.5" y="-2168.3" font-family="Times,serif" font-size="14.00">reverseMap = {}</text>
<text text-anchor="middle" x="133" y="-2153.3" font-family="Times,serif" font-size="14.00">mapindex = {Node29,Node15}</text>
</a>
</g>
</g>
<!-- n15&#45;&gt;n26 -->
<g id="edge32" class="edge"><title>n15&#45;&gt;n26</title>
<path fill="none" stroke="black" d="M478.101,-2293.52C466.167,-2289.39 453.783,-2285.37 442,-2282 369,-2261.12 347.535,-2268.44 275,-2246 262.205,-2242.04 248.957,-2237.4 235.928,-2232.5"/>
<polygon fill="black" stroke="black" points="237.079,-2229.19 226.489,-2228.89 234.578,-2235.73 237.079,-2229.19"/>
</g>
<!-- n16 -->
<g id="node16" class="node"><title>n16</title>
<g id="a_node16"><a xlink:title="[[C]]:&#45;1_&#45;6">
<ellipse fill="none" stroke="black" cx="1143" cy="-2442" rx="77.1743" ry="48.1667"/>
<text text-anchor="middle" x="1143" y="-2460.8" font-family="Times,serif" font-size="14.00">Node16</text>
<text text-anchor="start" x="1096" y="-2445.8" font-family="Times,serif" font-size="14.00">input = {}</text>
<text text-anchor="start" x="1096" y="-2430.8" font-family="Times,serif" font-size="14.00">selectindex = 6</text>
<text text-anchor="middle" x="1143" y="-2415.8" font-family="Times,serif" font-size="14.00">reverseMap = {}</text>
</a>
</g>
</g>
<!-- n16&#45;&gt;n12 -->
<g id="edge15" class="edge"><title>n16&#45;&gt;n12</title>
<path fill="none" stroke="black" d="M1150.85,-2393.92C1152.29,-2385.23 1153.8,-2376.17 1155.25,-2367.5"/>
<polygon fill="black" stroke="black" points="1158.72,-2368 1156.91,-2357.56 1151.81,-2366.85 1158.72,-2368"/>
</g>
<!-- n17 -->
<g id="node17" class="node"><title>n17</title>
<g id="a_node17"><a xlink:title="[./misc/attenmodel.lua]:42_">
<ellipse fill="none" stroke="black" cx="533" cy="-1518" rx="103.357" ry="48.1667"/>
<text text-anchor="middle" x="533" y="-1536.8" font-family="Times,serif" font-size="14.00">AW_2 (17)</text>
<text text-anchor="middle" x="533" y="-1521.8" font-family="Times,serif" font-size="14.00">desc = attention weight</text>
<text text-anchor="start" x="468" y="-1506.8" font-family="Times,serif" font-size="14.00">module = nn.Transpose</text>
<text text-anchor="middle" x="533" y="-1491.8" font-family="Times,serif" font-size="14.00">reverseMap = {}</text>
</a>
</g>
</g>
<!-- n17&#45;&gt;n13 -->
<g id="edge16" class="edge"><title>n17&#45;&gt;n13</title>
<path fill="none" stroke="black" d="M533.395,-1469.57C533.466,-1461.1 533.539,-1452.27 533.61,-1443.81"/>
<polygon fill="black" stroke="black" points="537.11,-1443.75 533.694,-1433.72 530.111,-1443.69 537.11,-1443.75"/>
</g>
<!-- n18 -->
<g id="node18" class="node"><title>n18</title>
<g id="a_node18"><a xlink:title="[[C]]:&#45;1_&#45;2">
<ellipse fill="none" stroke="black" cx="743" cy="-2442" rx="77.1743" ry="48.1667"/>
<text text-anchor="middle" x="743" y="-2460.8" font-family="Times,serif" font-size="14.00">Node18</text>
<text text-anchor="start" x="696" y="-2445.8" font-family="Times,serif" font-size="14.00">input = {}</text>
<text text-anchor="start" x="696" y="-2430.8" font-family="Times,serif" font-size="14.00">selectindex = 2</text>
<text text-anchor="middle" x="743" y="-2415.8" font-family="Times,serif" font-size="14.00">reverseMap = {}</text>
</a>
</g>
</g>
<!-- n18&#45;&gt;n14 -->
<g id="edge17" class="edge"><title>n18&#45;&gt;n14</title>
<path fill="none" stroke="black" d="M746.139,-2393.92C746.711,-2385.33 747.309,-2376.37 747.881,-2367.79"/>
<polygon fill="black" stroke="black" points="751.39,-2367.77 748.563,-2357.56 744.405,-2367.3 751.39,-2367.77"/>
</g>
<!-- n19 -->
<g id="node19" class="node"><title>n19</title>
<g id="a_node19"><a xlink:title="[[C]]:&#45;1_&#45;4">
<ellipse fill="none" stroke="black" cx="553" cy="-2442" rx="77.1743" ry="48.1667"/>
<text text-anchor="middle" x="553" y="-2460.8" font-family="Times,serif" font-size="14.00">Node19</text>
<text text-anchor="start" x="506" y="-2445.8" font-family="Times,serif" font-size="14.00">input = {}</text>
<text text-anchor="start" x="506" y="-2430.8" font-family="Times,serif" font-size="14.00">selectindex = 4</text>
<text text-anchor="middle" x="553" y="-2415.8" font-family="Times,serif" font-size="14.00">reverseMap = {}</text>
</a>
</g>
</g>
<!-- n19&#45;&gt;n15 -->
<g id="edge18" class="edge"><title>n19&#45;&gt;n15</title>
<path fill="none" stroke="black" d="M549.861,-2393.92C549.289,-2385.33 548.691,-2376.37 548.119,-2367.79"/>
<polygon fill="black" stroke="black" points="551.595,-2367.3 547.437,-2357.56 544.61,-2367.77 551.595,-2367.3"/>
</g>
<!-- n20 -->
<g id="node20" class="node"><title>n20</title>
<g id="a_node20"><a xlink:title="[[C]]:&#45;1_ split at [...rograms/distro/install/share/lua/5.1/nngraph/gmodule.lua]:96&#45;mnode">
<ellipse fill="none" stroke="black" cx="640" cy="-2564" rx="80.415" ry="37.4533"/>
<text text-anchor="middle" x="640" y="-2575.3" font-family="Times,serif" font-size="14.00">Node20</text>
<text text-anchor="start" x="591" y="-2560.3" font-family="Times,serif" font-size="14.00">reverseMap = {}</text>
<text text-anchor="middle" x="640" y="-2545.3" font-family="Times,serif" font-size="14.00">nSplitOutputs = 6</text>
</a>
</g>
</g>
<!-- n20&#45;&gt;n16 -->
<g id="edge19" class="edge"><title>n20&#45;&gt;n16</title>
<path fill="none" stroke="black" d="M717.062,-2553.07C795.935,-2541.83 921.547,-2520.98 1027,-2490 1041.62,-2485.7 1056.94,-2480.24 1071.47,-2474.56"/>
<polygon fill="black" stroke="black" points="1072.9,-2477.76 1080.9,-2470.81 1070.31,-2471.25 1072.9,-2477.76"/>
</g>
<!-- n20&#45;&gt;n18 -->
<g id="edge21" class="edge"><title>n20&#45;&gt;n18</title>
<path fill="none" stroke="black" d="M669.24,-2528.93C678.9,-2517.68 689.854,-2504.92 700.309,-2492.74"/>
<polygon fill="black" stroke="black" points="703.231,-2494.71 707.089,-2484.84 697.92,-2490.15 703.231,-2494.71"/>
</g>
<!-- n20&#45;&gt;n19 -->
<g id="edge22" class="edge"><title>n20&#45;&gt;n19</title>
<path fill="none" stroke="black" d="M614.836,-2528.29C607.163,-2517.71 598.559,-2505.84 590.264,-2494.4"/>
<polygon fill="black" stroke="black" points="592.999,-2492.21 584.296,-2486.17 587.332,-2496.32 592.999,-2492.21"/>
</g>
<!-- n31 -->
<g id="node31" class="node"><title>n31</title>
<g id="a_node31"><a xlink:title="[[C]]:&#45;1_&#45;1">
<ellipse fill="none" stroke="black" cx="359" cy="-2442" rx="77.1743" ry="48.1667"/>
<text text-anchor="middle" x="359" y="-2460.8" font-family="Times,serif" font-size="14.00">Node31</text>
<text text-anchor="start" x="312" y="-2445.8" font-family="Times,serif" font-size="14.00">input = {}</text>
<text text-anchor="start" x="312" y="-2430.8" font-family="Times,serif" font-size="14.00">selectindex = 1</text>
<text text-anchor="middle" x="359" y="-2415.8" font-family="Times,serif" font-size="14.00">reverseMap = {}</text>
</a>
</g>
</g>
<!-- n20&#45;&gt;n31 -->
<g id="edge38" class="edge"><title>n20&#45;&gt;n31</title>
<path fill="none" stroke="black" d="M580.703,-2538.41C547.011,-2524.37 504.079,-2506.35 466,-2490 454.599,-2485.1 442.539,-2479.87 430.786,-2474.73"/>
<polygon fill="black" stroke="black" points="432.008,-2471.44 421.444,-2470.64 429.2,-2477.85 432.008,-2471.44"/>
</g>
<!-- n32 -->
<g id="node32" class="node"><title>n32</title>
<g id="a_node32"><a xlink:title="[[C]]:&#45;1_&#45;3">
<ellipse fill="none" stroke="black" cx="159" cy="-2442" rx="77.1743" ry="48.1667"/>
<text text-anchor="middle" x="159" y="-2460.8" font-family="Times,serif" font-size="14.00">Node32</text>
<text text-anchor="start" x="112" y="-2445.8" font-family="Times,serif" font-size="14.00">input = {}</text>
<text text-anchor="start" x="112" y="-2430.8" font-family="Times,serif" font-size="14.00">selectindex = 3</text>
<text text-anchor="middle" x="159" y="-2415.8" font-family="Times,serif" font-size="14.00">reverseMap = {}</text>
</a>
</g>
</g>
<!-- n20&#45;&gt;n32 -->
<g id="edge39" class="edge"><title>n20&#45;&gt;n32</title>
<path fill="none" stroke="black" d="M563.505,-2552.36C488.308,-2540.85 370.778,-2520.01 272,-2490 258.208,-2485.81 243.789,-2480.54 230.046,-2475.05"/>
<polygon fill="black" stroke="black" points="231.236,-2471.76 220.654,-2471.24 228.599,-2478.24 231.236,-2471.76"/>
</g>
<!-- n33 -->
<g id="node33" class="node"><title>n33</title>
<g id="a_node33"><a xlink:title="[[C]]:&#45;1_&#45;5">
<ellipse fill="none" stroke="black" cx="941" cy="-2442" rx="77.1743" ry="48.1667"/>
<text text-anchor="middle" x="941" y="-2460.8" font-family="Times,serif" font-size="14.00">Node33</text>
<text text-anchor="start" x="894" y="-2445.8" font-family="Times,serif" font-size="14.00">input = {}</text>
<text text-anchor="start" x="894" y="-2430.8" font-family="Times,serif" font-size="14.00">selectindex = 5</text>
<text text-anchor="middle" x="941" y="-2415.8" font-family="Times,serif" font-size="14.00">reverseMap = {}</text>
</a>
</g>
</g>
<!-- n20&#45;&gt;n33 -->
<g id="edge40" class="edge"><title>n20&#45;&gt;n33</title>
<path fill="none" stroke="black" d="M701.46,-2539.77C738.509,-2525.64 786.585,-2507.09 829,-2490 841.749,-2484.86 855.266,-2479.3 868.334,-2473.85"/>
<polygon fill="black" stroke="black" points="869.876,-2477 877.753,-2469.91 867.177,-2470.54 869.876,-2477"/>
</g>
<!-- n21 -->
<g id="node21" class="node"><title>n21</title>
<g id="a_node21"><a xlink:title="[./misc/attenmodel.lua]:42_">
<ellipse fill="none" stroke="black" cx="496" cy="-1640" rx="103.357" ry="37.4533"/>
<text text-anchor="middle" x="496" y="-1651.3" font-family="Times,serif" font-size="14.00">Node21</text>
<text text-anchor="start" x="431" y="-1636.3" font-family="Times,serif" font-size="14.00">module = nn.Reshape()</text>
<text text-anchor="middle" x="496" y="-1621.3" font-family="Times,serif" font-size="14.00">reverseMap = {}</text>
</a>
</g>
</g>
<!-- n21&#45;&gt;n17 -->
<g id="edge20" class="edge"><title>n21&#45;&gt;n17</title>
<path fill="none" stroke="black" d="M507.202,-1602.67C509.854,-1594.07 512.744,-1584.69 515.599,-1575.43"/>
<polygon fill="black" stroke="black" points="518.949,-1576.45 518.551,-1565.86 512.26,-1574.39 518.949,-1576.45"/>
</g>
<!-- n22 -->
<g id="node22" class="node"><title>n22</title>
<g id="a_node22"><a xlink:title="[[C]]:&#45;1_">
<ellipse fill="none" stroke="black" cx="640" cy="-2676" rx="77.1743" ry="37.4533"/>
<text text-anchor="middle" x="640" y="-2687.3" font-family="Times,serif" font-size="14.00">Node22</text>
<text text-anchor="start" x="593" y="-2672.3" font-family="Times,serif" font-size="14.00">input = {}</text>
<text text-anchor="middle" x="640" y="-2657.3" font-family="Times,serif" font-size="14.00">reverseMap = {}</text>
</a>
</g>
</g>
<!-- n22&#45;&gt;n20 -->
<g id="edge23" class="edge"><title>n22&#45;&gt;n20</title>
<path fill="none" stroke="black" d="M640,-2638.37C640,-2629.93 640,-2620.83 640,-2612.01"/>
<polygon fill="black" stroke="black" points="643.5,-2611.84 640,-2601.84 636.5,-2611.84 643.5,-2611.84"/>
</g>
<!-- n23 -->
<g id="node23" class="node"><title>n23</title>
<g id="a_node23"><a xlink:title="[./misc/attenmodel.lua]:42_">
<ellipse fill="none" stroke="black" cx="480" cy="-1752" rx="101.236" ry="37.4533"/>
<text text-anchor="middle" x="480" y="-1763.3" font-family="Times,serif" font-size="14.00">Node23</text>
<text text-anchor="start" x="416" y="-1748.3" font-family="Times,serif" font-size="14.00">module = nn.JoinTable</text>
<text text-anchor="middle" x="480" y="-1733.3" font-family="Times,serif" font-size="14.00">reverseMap = {}</text>
</a>
</g>
</g>
<!-- n23&#45;&gt;n21 -->
<g id="edge24" class="edge"><title>n23&#45;&gt;n21</title>
<path fill="none" stroke="black" d="M485.328,-1714.37C486.583,-1705.74 487.937,-1696.43 489.245,-1687.44"/>
<polygon fill="black" stroke="black" points="492.72,-1687.87 490.695,-1677.47 485.792,-1686.86 492.72,-1687.87"/>
</g>
<!-- n24 -->
<g id="node24" class="node"><title>n24</title>
<g id="a_node24"><a xlink:title="[./misc/attenmodel.lua]:41_">
<ellipse fill="none" stroke="black" cx="418" cy="-1959" rx="193.06" ry="132.872"/>
<text text-anchor="middle" x="418" y="-2037.8" font-family="Times,serif" font-size="14.00">maptable_mlp_layer (24)</text>
<text text-anchor="middle" x="418" y="-2022.8" font-family="Times,serif" font-size="14.00">desc = maptable mlp layer</text>
<text text-anchor="start" x="289.5" y="-2007.8" font-family="Times,serif" font-size="14.00">module = nn.MapTable {</text>
<text text-anchor="start" x="289.5" y="-1992.8" font-family="Times,serif" font-size="14.00"> &#160;nn.Sequential {</text>
<text text-anchor="start" x="289.5" y="-1977.8" font-family="Times,serif" font-size="14.00"> &#160;&#160;&#160;&#160;&#160;&#160;&#160;&#160;&#160;[input &#45;&gt; (1) &#45;&gt; (2) &#45;&gt; (3) &#45;&gt; output]</text>
<text text-anchor="start" x="289.5" y="-1962.8" font-family="Times,serif" font-size="14.00"> &#160;&#160;&#160;&#160;&#160;&#160;&#160;&#160;&#160;(1): nn.MaskZero @ nn.Linear(12 &#45;&gt; 6)</text>
<text text-anchor="start" x="289.5" y="-1947.8" font-family="Times,serif" font-size="14.00"> &#160;&#160;&#160;&#160;&#160;&#160;&#160;&#160;&#160;(2): nn.MaskZero @ nn.Tanh</text>
<text text-anchor="start" x="289.5" y="-1932.8" font-family="Times,serif" font-size="14.00"> &#160;&#160;&#160;&#160;&#160;&#160;&#160;&#160;&#160;(3): nn.MaskZero @ nn.Linear(6 &#45;&gt; 4)</text>
<text text-anchor="start" x="289.5" y="-1917.8" font-family="Times,serif" font-size="14.00"> &#160;&#160;&#160;&#160;&#160;&#160;&#160;}</text>
<text text-anchor="start" x="289.5" y="-1902.8" font-family="Times,serif" font-size="14.00">}</text>
<text text-anchor="start" x="289.5" y="-1887.8" font-family="Times,serif" font-size="14.00">reverseMap = {}</text>
<text text-anchor="middle" x="418" y="-1872.8" font-family="Times,serif" font-size="14.00">mapindex = {Node25,Node26,Node27}</text>
</a>
</g>
</g>
<!-- n24&#45;&gt;n23 -->
<g id="edge25" class="edge"><title>n24&#45;&gt;n23</title>
<path fill="none" stroke="black" d="M457.09,-1828.75C460.251,-1818.3 463.291,-1808.25 466.066,-1799.07"/>
<polygon fill="black" stroke="black" points="469.422,-1800.07 468.966,-1789.48 462.721,-1798.04 469.422,-1800.07"/>
</g>
<!-- n25&#45;&gt;n24 -->
<g id="edge26" class="edge"><title>n25&#45;&gt;n24</title>
<path fill="none" stroke="black" d="M418,-2128.09C418,-2119.92 418,-2111.24 418,-2102.3"/>
<polygon fill="black" stroke="black" points="421.5,-2102.1 418,-2092.1 414.5,-2102.1 421.5,-2102.1"/>
</g>
<!-- n26&#45;&gt;n24 -->
<g id="edge27" class="edge"><title>n26&#45;&gt;n24</title>
<path fill="none" stroke="black" d="M196.96,-2135.28C222.797,-2114.79 253.643,-2090.33 283.976,-2066.28"/>
<polygon fill="black" stroke="black" points="286.431,-2068.8 292.091,-2059.84 282.081,-2063.31 286.431,-2068.8"/>
</g>
<!-- n27&#45;&gt;n24 -->
<g id="edge28" class="edge"><title>n27&#45;&gt;n24</title>
<path fill="none" stroke="black" d="M935.691,-2144.65C919.06,-2138.33 901.698,-2132.45 885,-2128 770.141,-2097.42 731.369,-2133.53 620,-2092 598.791,-2084.09 577.537,-2073.64 557.2,-2062.07"/>
<polygon fill="black" stroke="black" points="558.95,-2059.04 548.544,-2057.05 555.438,-2065.1 558.95,-2059.04"/>
</g>
<!-- n28 -->
<g id="node28" class="node"><title>n28</title>
<g id="a_node28"><a xlink:title="[./misc/attenmodel.lua]:19_">
<ellipse fill="none" stroke="black" cx="339" cy="-2320" rx="94.0678" ry="37.4533"/>
<text text-anchor="middle" x="339" y="-2331.3" font-family="Times,serif" font-size="14.00">x1 (28)</text>
<text text-anchor="start" x="280.5" y="-2316.3" font-family="Times,serif" font-size="14.00">module = nn.Identity</text>
<text text-anchor="middle" x="339" y="-2301.3" font-family="Times,serif" font-size="14.00">reverseMap = {}</text>
</a>
</g>
</g>
<!-- n28&#45;&gt;n25 -->
<g id="edge29" class="edge"><title>n28&#45;&gt;n25</title>
<path fill="none" stroke="black" d="M360.587,-2283.2C366.298,-2273.73 372.642,-2263.21 378.97,-2252.72"/>
<polygon fill="black" stroke="black" points="382.101,-2254.31 384.268,-2243.94 376.106,-2250.69 382.101,-2254.31"/>
</g>
<!-- n29 -->
<g id="node29" class="node"><title>n29</title>
<g id="a_node29"><a xlink:title="[./misc/attenmodel.lua]:19_">
<ellipse fill="none" stroke="black" cx="133" cy="-2320" rx="94.0678" ry="37.4533"/>
<text text-anchor="middle" x="133" y="-2331.3" font-family="Times,serif" font-size="14.00">x2 (29)</text>
<text text-anchor="start" x="74.5" y="-2316.3" font-family="Times,serif" font-size="14.00">module = nn.Identity</text>
<text text-anchor="middle" x="133" y="-2301.3" font-family="Times,serif" font-size="14.00">reverseMap = {}</text>
</a>
</g>
</g>
<!-- n29&#45;&gt;n26 -->
<g id="edge31" class="edge"><title>n29&#45;&gt;n26</title>
<path fill="none" stroke="black" d="M133,-2282.51C133,-2274.26 133,-2265.24 133,-2256.15"/>
<polygon fill="black" stroke="black" points="136.5,-2255.9 133,-2245.9 129.5,-2255.9 136.5,-2255.9"/>
</g>
<!-- n30 -->
<g id="node30" class="node"><title>n30</title>
<g id="a_node30"><a xlink:title="[./misc/attenmodel.lua]:19_">
<ellipse fill="none" stroke="black" cx="957" cy="-2320" rx="94.0678" ry="37.4533"/>
<text text-anchor="middle" x="957" y="-2331.3" font-family="Times,serif" font-size="14.00">x3 (30)</text>
<text text-anchor="start" x="898.5" y="-2316.3" font-family="Times,serif" font-size="14.00">module = nn.Identity</text>
<text text-anchor="middle" x="957" y="-2301.3" font-family="Times,serif" font-size="14.00">reverseMap = {}</text>
</a>
</g>
</g>
<!-- n30&#45;&gt;n27 -->
<g id="edge33" class="edge"><title>n30&#45;&gt;n27</title>
<path fill="none" stroke="black" d="M976.401,-2283.2C981.419,-2273.95 986.98,-2263.68 992.541,-2253.42"/>
<polygon fill="black" stroke="black" points="995.725,-2254.89 997.413,-2244.43 989.571,-2251.56 995.725,-2254.89"/>
</g>
<!-- n31&#45;&gt;n28 -->
<g id="edge35" class="edge"><title>n31&#45;&gt;n28</title>
<path fill="none" stroke="black" d="M351.153,-2393.92C349.706,-2385.23 348.195,-2376.17 346.751,-2367.5"/>
<polygon fill="black" stroke="black" points="350.19,-2366.85 345.093,-2357.56 343.285,-2368 350.19,-2366.85"/>
</g>
<!-- n32&#45;&gt;n29 -->
<g id="edge36" class="edge"><title>n32&#45;&gt;n29</title>
<path fill="none" stroke="black" d="M148.873,-2394.26C146.946,-2385.37 144.931,-2376.07 143.008,-2367.19"/>
<polygon fill="black" stroke="black" points="146.423,-2366.43 140.885,-2357.39 139.582,-2367.91 146.423,-2366.43"/>
</g>
<!-- n33&#45;&gt;n30 -->
<g id="edge37" class="edge"><title>n33&#45;&gt;n30</title>
<path fill="none" stroke="black" d="M947.278,-2393.92C948.436,-2385.23 949.644,-2376.17 950.799,-2367.5"/>
<polygon fill="black" stroke="black" points="954.273,-2367.93 952.125,-2357.56 947.334,-2367.01 954.273,-2367.93"/>
</g>
</g>
</svg>
